# xmcd
#
# Track frame offsets: 
#        150
#        30726
#        44287
#        63579
#        83665
#        99597
#        131252
#        156602
#        181361
#        203694
#        220520
#
# Disc length: 3414 seconds
#
# Revision: 0
# Processed by: cddbd v1.5.2PL0 Copyright (c) Steve Scherf et al.
# Submitted via: ExactAudioCopy v1.0b3
#
DISCID=910d540b
DTITLE=Dexys - One Day I'm Going To Soar
DYEAR=2012
DGENRE=Soul
TTITLE0=Now
TTITLE1=Lost
TTITLE2=Me
TTITLE3=She Got a Wiggle
TTITLE4=You
TTITLE5=I'm Thinking of You
TTITLE6=I'm Always Going to Love You
TTITLE7=Incapable of Love
TTITLE8=Nowhere is Home
TTITLE9=Free
TTITLE10=It's O.K. John Joe
EXTD=
EXTT0=
EXTT1=
EXTT2=
EXTT3=
EXTT4=
EXTT5=
EXTT6=
EXTT7=
EXTT8=
EXTT9=
EXTT10=
PLAYORDER=
